ISO-10303-21;
HEADER;
FILE_DESCRIPTION(('STEP AP242'),
    '1');
FILE_NAME('ED350V-02P',
    '',
    ('UNSPECIFIED'),
    ('UNSPECIFIED'),
    'C3D Converter',
    'C3D Toolkit',
    '');
FILE_SCHEMA(('AP242_MANAGED_MODEL_BASED_3D_ENGINEERING_MIM_LF { 1 0 10303 442 1 1 4 }'));
ENDSEC;

DATA;
#1=PRODUCT_DEFINITION('','UNSPECIFIED',#58,#61);
#2=SHAPE_DEFINITION_REPRESENTATION(#56,#3);
#3=SHAPE_REPRESENTATION('NONE',(#4),#8);
#4=AXIS2_PLACEMENT_3D('',#5,#6,#7);
#5=CARTESIAN_POINT('',(0.,0.,0.));
#6=DIRECTION('',(0.,0.,1.));
#7=DIRECTION('',(1.,0.,0.));
#8=(GEOMETRIC_REPRESENTATION_CONTEXT(3)GLOBAL_UNCERTAINTY_ASSIGNED_CONTEXT((#10))
GLOBAL_UNIT_ASSIGNED_CONTEXT((#9,#11,#12))REPRESENTATION_CONTEXT('NONE','NONE'));
#9=(LENGTH_UNIT()NAMED_UNIT(*)SI_UNIT(.MILLI.,.METRE.));
#10=UNCERTAINTY_MEASURE_WITH_UNIT(LENGTH_MEASURE(1.E-5),#9,'NONE','NONE');
#11=(NAMED_UNIT(*)PLANE_ANGLE_UNIT()SI_UNIT($,.RADIAN.));
#12=(NAMED_UNIT(*)SI_UNIT($,.STERADIAN.)SOLID_ANGLE_UNIT());
#13=MANIFOLD_SOLID_BREP('',#14);
#14=CLOSED_SHELL('',(#78,#87,#96,#105,#114,#123,#132,#141,#150,#159,#168,#177));
#15=COLOUR_RGB('',0.564705882352941,0.564705882352941,0.564705882352941);
#16=FILL_AREA_STYLE_COLOUR('',#15);
#17=FILL_AREA_STYLE($,(#16));
#18=SURFACE_STYLE_FILL_AREA(#17);
#19=SURFACE_SIDE_STYLE('',(#18));
#20=SURFACE_STYLE_USAGE(.BOTH.,#19);
#21=PRESENTATION_STYLE_ASSIGNMENT((#20));
#22=MECHANICAL_DESIGN_GEOMETRIC_PRESENTATION_REPRESENTATION('NONE',(#23,#33,#43,
#53,#86,#95,#104,#113,#122,#131,#140,#149,#158,#167,#176,#185,#194,#203,#212,#221,
#230,#239,#248,#257,#266,#275,#284,#293,#302,#311,#320,#329,#338,#347,#356,#365,
#374,#383,#392,#401,#410,#419,#428,#437,#446,#455),#8);
#23=STYLED_ITEM('',(#21),#13);
#24=MANIFOLD_SOLID_BREP('',#25);
#25=CLOSED_SHELL('',(#186,#195,#204));
#26=COLOUR_RGB('',0.564705882352941,0.564705882352941,0.564705882352941);
#27=FILL_AREA_STYLE_COLOUR('',#26);
#28=FILL_AREA_STYLE($,(#27));
#29=SURFACE_STYLE_FILL_AREA(#28);
#30=SURFACE_SIDE_STYLE('',(#29));
#31=SURFACE_STYLE_USAGE(.BOTH.,#30);
#32=PRESENTATION_STYLE_ASSIGNMENT((#31));
#33=STYLED_ITEM('',(#32),#24);
#34=MANIFOLD_SOLID_BREP('',#35);
#35=CLOSED_SHELL('',(#213,#222,#231));
#36=COLOUR_RGB('',0.564705882352941,0.564705882352941,0.564705882352941);
#37=FILL_AREA_STYLE_COLOUR('',#36);
#38=FILL_AREA_STYLE($,(#37));
#39=SURFACE_STYLE_FILL_AREA(#38);
#40=SURFACE_SIDE_STYLE('',(#39));
#41=SURFACE_STYLE_USAGE(.BOTH.,#40);
#42=PRESENTATION_STYLE_ASSIGNMENT((#41));
#43=STYLED_ITEM('',(#42),#34);
#44=MANIFOLD_SOLID_BREP('',#45);
#45=CLOSED_SHELL('',(#240,#249,#258,#267,#276,#285,#294,#303,#312,#321,#330,#339,
#348,#357,#366,#375,#384,#393,#402,#411,#420,#429,#438,#447));
#46=COLOUR_RGB('',0.564705882352941,0.564705882352941,0.564705882352941);
#47=FILL_AREA_STYLE_COLOUR('',#46);
#48=FILL_AREA_STYLE($,(#47));
#49=SURFACE_STYLE_FILL_AREA(#48);
#50=SURFACE_SIDE_STYLE('',(#49));
#51=SURFACE_STYLE_USAGE(.BOTH.,#50);
#52=PRESENTATION_STYLE_ASSIGNMENT((#51));
#53=STYLED_ITEM('',(#52),#44);
#54=ADVANCED_BREP_SHAPE_REPRESENTATION('NONE',(#13,#24,#34,#44),#8);
#55=SHAPE_REPRESENTATION_RELATIONSHIP('','',#3,#54);
#56=PRODUCT_DEFINITION_SHAPE('NONE','NONE',#1);
#57=MECHANICAL_CONTEXT('NONE',#62,'mechanical');
#58=PRODUCT_DEFINITION_FORMATION_WITH_SPECIFIED_SOURCE('ANY','UNSPECIFIED',#59,.NOT_KNOWN.);
#59=PRODUCT('','ED350V-02P','NONE',(#57));
#60=PRODUCT_RELATED_PRODUCT_CATEGORY('detail','',(#59));
#61=DESIGN_CONTEXT('detailed design',#62,'design');
#62=APPLICATION_CONTEXT('configuration controlled 3d designs of mechanical parts and assemblies');
#63=APPLICATION_PROTOCOL_DEFINITION('international standard','config_control_design',
1994,#62);
#64=CC_DESIGN_DATE_AND_TIME_ASSIGNMENT(#65,#69,(#1));
#65=DATE_AND_TIME(#66,#67);
#66=CALENDAR_DATE(0,1,1);
#67=LOCAL_TIME(0,0,0.,#68);
#68=COORDINATED_UNIVERSAL_TIME_OFFSET(0,0,.AHEAD.);
#69=DATE_TIME_ROLE('creation_date');
#70=CC_DESIGN_APPROVAL(#71,(#1));
#71=APPROVAL(#72,'UNSPECIFIED');
#72=APPROVAL_STATUS('not_yet_approved');
#73=APPROVAL_DATE_TIME(#74,#71);
#74=DATE_AND_TIME(#75,#76);
#75=CALENDAR_DATE(0,1,1);
#76=LOCAL_TIME(0,0,0.,#77);
#77=COORDINATED_UNIVERSAL_TIME_OFFSET(0,0,.AHEAD.);
#78=ADVANCED_FACE('',(#456,#458,#460),#462,.T.);
#79=COLOUR_RGB('',0.564705882352941,0.564705882352941,0.564705882352941);
#80=FILL_AREA_STYLE_COLOUR('',#79);
#81=FILL_AREA_STYLE($,(#80));
#82=SURFACE_STYLE_FILL_AREA(#81);
#83=SURFACE_SIDE_STYLE('',(#82));
#84=SURFACE_STYLE_USAGE(.BOTH.,#83);
#85=PRESENTATION_STYLE_ASSIGNMENT((#84));
#86=STYLED_ITEM('',(#85),#78);
#87=ADVANCED_FACE('',(#467,#469),#471,.F.);
#88=COLOUR_RGB('',0.564705882352941,0.564705882352941,0.564705882352941);
#89=FILL_AREA_STYLE_COLOUR('',#88);
#90=FILL_AREA_STYLE($,(#89));
#91=SURFACE_STYLE_FILL_AREA(#90);
#92=SURFACE_SIDE_STYLE('',(#91));
#93=SURFACE_STYLE_USAGE(.BOTH.,#92);
#94=PRESENTATION_STYLE_ASSIGNMENT((#93));
#95=STYLED_ITEM('',(#94),#87);
#96=ADVANCED_FACE('',(#476,#478),#480,.F.);
#97=COLOUR_RGB('',0.564705882352941,0.564705882352941,0.564705882352941);
#98=FILL_AREA_STYLE_COLOUR('',#97);
#99=FILL_AREA_STYLE($,(#98));
#100=SURFACE_STYLE_FILL_AREA(#99);
#101=SURFACE_SIDE_STYLE('',(#100));
#102=SURFACE_STYLE_USAGE(.BOTH.,#101);
#103=PRESENTATION_STYLE_ASSIGNMENT((#102));
#104=STYLED_ITEM('',(#103),#96);
#105=ADVANCED_FACE('',(#485),#487,.T.);
#106=COLOUR_RGB('',0.564705882352941,0.564705882352941,0.564705882352941);
#107=FILL_AREA_STYLE_COLOUR('',#106);
#108=FILL_AREA_STYLE($,(#107));
#109=SURFACE_STYLE_FILL_AREA(#108);
#110=SURFACE_SIDE_STYLE('',(#109));
#111=SURFACE_STYLE_USAGE(.BOTH.,#110);
#112=PRESENTATION_STYLE_ASSIGNMENT((#111));
#113=STYLED_ITEM('',(#112),#105);
#114=ADVANCED_FACE('',(#492),#494,.T.);
#115=COLOUR_RGB('',0.564705882352941,0.564705882352941,0.564705882352941);
#116=FILL_AREA_STYLE_COLOUR('',#115);
#117=FILL_AREA_STYLE($,(#116));
#118=SURFACE_STYLE_FILL_AREA(#117);
#119=SURFACE_SIDE_STYLE('',(#118));
#120=SURFACE_STYLE_USAGE(.BOTH.,#119);
#121=PRESENTATION_STYLE_ASSIGNMENT((#120));
#122=STYLED_ITEM('',(#121),#114);
#123=ADVANCED_FACE('',(#499),#501,.T.);
#124=COLOUR_RGB('',0.564705882352941,0.564705882352941,0.564705882352941);
#125=FILL_AREA_STYLE_COLOUR('',#124);
#126=FILL_AREA_STYLE($,(#125));
#127=SURFACE_STYLE_FILL_AREA(#126);
#128=SURFACE_SIDE_STYLE('',(#127));
#129=SURFACE_STYLE_USAGE(.BOTH.,#128);
#130=PRESENTATION_STYLE_ASSIGNMENT((#129));
#131=STYLED_ITEM('',(#130),#123);
#132=ADVANCED_FACE('',(#506),#508,.T.);
#133=COLOUR_RGB('',0.564705882352941,0.564705882352941,0.564705882352941);
#134=FILL_AREA_STYLE_COLOUR('',#133);
#135=FILL_AREA_STYLE($,(#134));
#136=SURFACE_STYLE_FILL_AREA(#135);
#137=SURFACE_SIDE_STYLE('',(#136));
#138=SURFACE_STYLE_USAGE(.BOTH.,#137);
#139=PRESENTATION_STYLE_ASSIGNMENT((#138));
#140=STYLED_ITEM('',(#139),#132);
#141=ADVANCED_FACE('',(#513),#515,.T.);
#142=COLOUR_RGB('',0.564705882352941,0.564705882352941,0.564705882352941);
#143=FILL_AREA_STYLE_COLOUR('',#142);
#144=FILL_AREA_STYLE($,(#143));
#145=SURFACE_STYLE_FILL_AREA(#144);
#146=SURFACE_SIDE_STYLE('',(#145));
#147=SURFACE_STYLE_USAGE(.BOTH.,#146);
#148=PRESENTATION_STYLE_ASSIGNMENT((#147));
#149=STYLED_ITEM('',(#148),#141);
#150=ADVANCED_FACE('',(#520),#522,.T.);
#151=COLOUR_RGB('',0.564705882352941,0.564705882352941,0.564705882352941);
#152=FILL_AREA_STYLE_COLOUR('',#151);
#153=FILL_AREA_STYLE($,(#152));
#154=SURFACE_STYLE_FILL_AREA(#153);
#155=SURFACE_SIDE_STYLE('',(#154));
#156=SURFACE_STYLE_USAGE(.BOTH.,#155);
#157=PRESENTATION_STYLE_ASSIGNMENT((#156));
#158=STYLED_ITEM('',(#157),#150);
#159=ADVANCED_FACE('',(#527),#529,.T.);
#160=COLOUR_RGB('',0.564705882352941,0.564705882352941,0.564705882352941);
#161=FILL_AREA_STYLE_COLOUR('',#160);
#162=FILL_AREA_STYLE($,(#161));
#163=SURFACE_STYLE_FILL_AREA(#162);
#164=SURFACE_SIDE_STYLE('',(#163));
#165=SURFACE_STYLE_USAGE(.BOTH.,#164);
#166=PRESENTATION_STYLE_ASSIGNMENT((#165));
#167=STYLED_ITEM('',(#166),#159);
#168=ADVANCED_FACE('',(#534),#536,.F.);
#169=COLOUR_RGB('',0.564705882352941,0.564705882352941,0.564705882352941);
#170=FILL_AREA_STYLE_COLOUR('',#169);
#171=FILL_AREA_STYLE($,(#170));
#172=SURFACE_STYLE_FILL_AREA(#171);
#173=SURFACE_SIDE_STYLE('',(#172));
#174=SURFACE_STYLE_USAGE(.BOTH.,#173);
#175=PRESENTATION_STYLE_ASSIGNMENT((#174));
#176=STYLED_ITEM('',(#175),#168);
#177=ADVANCED_FACE('',(#541),#543,.T.);
#178=COLOUR_RGB('',0.564705882352941,0.564705882352941,0.564705882352941);
#179=FILL_AREA_STYLE_COLOUR('',#178);
#180=FILL_AREA_STYLE($,(#179));
#181=SURFACE_STYLE_FILL_AREA(#180);
#182=SURFACE_SIDE_STYLE('',(#181));
#183=SURFACE_STYLE_USAGE(.BOTH.,#182);
#184=PRESENTATION_STYLE_ASSIGNMENT((#183));
#185=STYLED_ITEM('',(#184),#177);
#186=ADVANCED_FACE('',(#548,#550),#552,.T.);
#187=COLOUR_RGB('',1.,0.6,0.2);
#188=FILL_AREA_STYLE_COLOUR('',#187);
#189=FILL_AREA_STYLE($,(#188));
#190=SURFACE_STYLE_FILL_AREA(#189);
#191=SURFACE_SIDE_STYLE('',(#190));
#192=SURFACE_STYLE_USAGE(.BOTH.,#191);
#193=PRESENTATION_STYLE_ASSIGNMENT((#192));
#194=STYLED_ITEM('',(#193),#186);
#195=ADVANCED_FACE('',(#557),#559,.T.);
#196=COLOUR_RGB('',1.,0.6,0.2);
#197=FILL_AREA_STYLE_COLOUR('',#196);
#198=FILL_AREA_STYLE($,(#197));
#199=SURFACE_STYLE_FILL_AREA(#198);
#200=SURFACE_SIDE_STYLE('',(#199));
#201=SURFACE_STYLE_USAGE(.BOTH.,#200);
#202=PRESENTATION_STYLE_ASSIGNMENT((#201));
#203=STYLED_ITEM('',(#202),#195);
#204=ADVANCED_FACE('',(#564),#566,.F.);
#205=COLOUR_RGB('',1.,0.6,0.2);
#206=FILL_AREA_STYLE_COLOUR('',#205);
#207=FILL_AREA_STYLE($,(#206));
#208=SURFACE_STYLE_FILL_AREA(#207);
#209=SURFACE_SIDE_STYLE('',(#208));
#210=SURFACE_STYLE_USAGE(.BOTH.,#209);
#211=PRESENTATION_STYLE_ASSIGNMENT((#210));
#212=STYLED_ITEM('',(#211),#204);
#213=ADVANCED_FACE('',(#571,#573),#575,.T.);
#214=COLOUR_RGB('',1.,0.6,0.2);
#215=FILL_AREA_STYLE_COLOUR('',#214);
#216=FILL_AREA_STYLE($,(#215));
#217=SURFACE_STYLE_FILL_AREA(#216);
#218=SURFACE_SIDE_STYLE('',(#217));
#219=SURFACE_STYLE_USAGE(.BOTH.,#218);
#220=PRESENTATION_STYLE_ASSIGNMENT((#219));
#221=STYLED_ITEM('',(#220),#213);
#222=ADVANCED_FACE('',(#580),#582,.F.);
#223=COLOUR_RGB('',1.,0.6,0.2);
#224=FILL_AREA_STYLE_COLOUR('',#223);
#225=FILL_AREA_STYLE($,(#224));
#226=SURFACE_STYLE_FILL_AREA(#225);
#227=SURFACE_SIDE_STYLE('',(#226));
#228=SURFACE_STYLE_USAGE(.BOTH.,#227);
#229=PRESENTATION_STYLE_ASSIGNMENT((#228));
#230=STYLED_ITEM('',(#229),#222);
#231=ADVANCED_FACE('',(#587),#589,.T.);
#232=COLOUR_RGB('',1.,0.6,0.2);
#233=FILL_AREA_STYLE_COLOUR('',#232);
#234=FILL_AREA_STYLE($,(#233));
#235=SURFACE_STYLE_FILL_AREA(#234);
#236=SURFACE_SIDE_STYLE('',(#235));
#237=SURFACE_STYLE_USAGE(.BOTH.,#236);
#238=PRESENTATION_STYLE_ASSIGNMENT((#237));
#239=STYLED_ITEM('',(#238),#231);
#240=ADVANCED_FACE('',(#594,#596,#598),#600,.T.);
#241=COLOUR_RGB('',0.564705882352941,0.564705882352941,0.564705882352941);
#242=FILL_AREA_STYLE_COLOUR('',#241);
#243=FILL_AREA_STYLE($,(#242));
#244=SURFACE_STYLE_FILL_AREA(#243);
#245=SURFACE_SIDE_STYLE('',(#244));
#246=SURFACE_STYLE_USAGE(.BOTH.,#245);
#247=PRESENTATION_STYLE_ASSIGNMENT((#246));
#248=STYLED_ITEM('',(#247),#240);
#249=ADVANCED_FACE('',(#605),#607,.F.);
#250=COLOUR_RGB('',1.,0.6,0.2);
#251=FILL_AREA_STYLE_COLOUR('',#250);
#252=FILL_AREA_STYLE($,(#251));
#253=SURFACE_STYLE_FILL_AREA(#252);
#254=SURFACE_SIDE_STYLE('',(#253));
#255=SURFACE_STYLE_USAGE(.BOTH.,#254);
#256=PRESENTATION_STYLE_ASSIGNMENT((#255));
#257=STYLED_ITEM('',(#256),#249);
#258=ADVANCED_FACE('',(#612),#614,.F.);
#259=COLOUR_RGB('',1.,0.6,0.2);
#260=FILL_AREA_STYLE_COLOUR('',#259);
#261=FILL_AREA_STYLE($,(#260));
#262=SURFACE_STYLE_FILL_AREA(#261);
#263=SURFACE_SIDE_STYLE('',(#262));
#264=SURFACE_STYLE_USAGE(.BOTH.,#263);
#265=PRESENTATION_STYLE_ASSIGNMENT((#264));
#266=STYLED_ITEM('',(#265),#258);
#267=ADVANCED_FACE('',(#619),#621,.F.);
#268=COLOUR_RGB('',1.,0.6,0.2);
#269=FILL_AREA_STYLE_COLOUR('',#268);
#270=FILL_AREA_STYLE($,(#269));
#271=SURFACE_STYLE_FILL_AREA(#270);
#272=SURFACE_SIDE_STYLE('',(#271));
#273=SURFACE_STYLE_USAGE(.BOTH.,#272);
#274=PRESENTATION_STYLE_ASSIGNMENT((#273));
#275=STYLED_ITEM('',(#274),#267);
#276=ADVANCED_FACE('',(#626),#628,.F.);
#277=COLOUR_RGB('',1.,0.6,0.2);
#278=FILL_AREA_STYLE_COLOUR('',#277);
#279=FILL_AREA_STYLE($,(#278));
#280=SURFACE_STYLE_FILL_AREA(#279);
#281=SURFACE_SIDE_STYLE('',(#280));
#282=SURFACE_STYLE_USAGE(.BOTH.,#281);
#283=PRESENTATION_STYLE_ASSIGNMENT((#282));
#284=STYLED_ITEM('',(#283),#276);
#285=ADVANCED_FACE('',(#633),#635,.F.);
#286=COLOUR_RGB('',1.,0.6,0.2);
#287=FILL_AREA_STYLE_COLOUR('',#286);
#288=FILL_AREA_STYLE($,(#287));
#289=SURFACE_STYLE_FILL_AREA(#288);
#290=SURFACE_SIDE_STYLE('',(#289));
#291=SURFACE_STYLE_USAGE(.BOTH.,#290);
#292=PRESENTATION_STYLE_ASSIGNMENT((#291));
#293=STYLED_ITEM('',(#292),#285);
#294=ADVANCED_FACE('',(#640),#642,.F.);
#295=COLOUR_RGB('',1.,0.6,0.2);
#296=FILL_AREA_STYLE_COLOUR('',#295);
#297=FILL_AREA_STYLE($,(#296));
#298=SURFACE_STYLE_FILL_AREA(#297);
#299=SURFACE_SIDE_STYLE('',(#298));
#300=SURFACE_STYLE_USAGE(.BOTH.,#299);
#301=PRESENTATION_STYLE_ASSIGNMENT((#300));
#302=STYLED_ITEM('',(#301),#294);
#303=ADVANCED_FACE('',(#647),#649,.F.);
#304=COLOUR_RGB('',1.,0.6,0.2);
#305=FILL_AREA_STYLE_COLOUR('',#304);
#306=FILL_AREA_STYLE($,(#305));
#307=SURFACE_STYLE_FILL_AREA(#306);
#308=SURFACE_SIDE_STYLE('',(#307));
#309=SURFACE_STYLE_USAGE(.BOTH.,#308);
#310=PRESENTATION_STYLE_ASSIGNMENT((#309));
#311=STYLED_ITEM('',(#310),#303);
#312=ADVANCED_FACE('',(#654),#656,.F.);
#313=COLOUR_RGB('',1.,0.6,0.2);
#314=FILL_AREA_STYLE_COLOUR('',#313);
#315=FILL_AREA_STYLE($,(#314));
#316=SURFACE_STYLE_FILL_AREA(#315);
#317=SURFACE_SIDE_STYLE('',(#316));
#318=SURFACE_STYLE_USAGE(.BOTH.,#317);
#319=PRESENTATION_STYLE_ASSIGNMENT((#318));
#320=STYLED_ITEM('',(#319),#312);
#321=ADVANCED_FACE('',(#661),#663,.F.);
#322=COLOUR_RGB('',0.564705882352941,0.564705882352941,0.564705882352941);
#323=FILL_AREA_STYLE_COLOUR('',#322);
#324=FILL_AREA_STYLE($,(#323));
#325=SURFACE_STYLE_FILL_AREA(#324);
#326=SURFACE_SIDE_STYLE('',(#325));
#327=SURFACE_STYLE_USAGE(.BOTH.,#326);
#328=PRESENTATION_STYLE_ASSIGNMENT((#327));
#329=STYLED_ITEM('',(#328),#321);
#330=ADVANCED_FACE('',(#668),#670,.T.);
#331=COLOUR_RGB('',0.564705882352941,0.564705882352941,0.564705882352941);
#332=FILL_AREA_STYLE_COLOUR('',#331);
#333=FILL_AREA_STYLE($,(#332));
#334=SURFACE_STYLE_FILL_AREA(#333);
#335=SURFACE_SIDE_STYLE('',(#334));
#336=SURFACE_STYLE_USAGE(.BOTH.,#335);
#337=PRESENTATION_STYLE_ASSIGNMENT((#336));
#338=STYLED_ITEM('',(#337),#330);
#339=ADVANCED_FACE('',(#675),#677,.T.);
#340=COLOUR_RGB('',0.564705882352941,0.564705882352941,0.564705882352941);
#341=FILL_AREA_STYLE_COLOUR('',#340);
#342=FILL_AREA_STYLE($,(#341));
#343=SURFACE_STYLE_FILL_AREA(#342);
#344=SURFACE_SIDE_STYLE('',(#343));
#345=SURFACE_STYLE_USAGE(.BOTH.,#344);
#346=PRESENTATION_STYLE_ASSIGNMENT((#345));
#347=STYLED_ITEM('',(#346),#339);
#348=ADVANCED_FACE('',(#682),#684,.T.);
#349=COLOUR_RGB('',0.564705882352941,0.564705882352941,0.564705882352941);
#350=FILL_AREA_STYLE_COLOUR('',#349);
#351=FILL_AREA_STYLE($,(#350));
#352=SURFACE_STYLE_FILL_AREA(#351);
#353=SURFACE_SIDE_STYLE('',(#352));
#354=SURFACE_STYLE_USAGE(.BOTH.,#353);
#355=PRESENTATION_STYLE_ASSIGNMENT((#354));
#356=STYLED_ITEM('',(#355),#348);
#357=ADVANCED_FACE('',(#689),#691,.T.);
#358=COLOUR_RGB('',1.,0.6,0.2);
#359=FILL_AREA_STYLE_COLOUR('',#358);
#360=FILL_AREA_STYLE($,(#359));
#361=SURFACE_STYLE_FILL_AREA(#360);
#362=SURFACE_SIDE_STYLE('',(#361));
#363=SURFACE_STYLE_USAGE(.BOTH.,#362);
#364=PRESENTATION_STYLE_ASSIGNMENT((#363));
#365=STYLED_ITEM('',(#364),#357);
#366=ADVANCED_FACE('',(#696),#698,.T.);
#367=COLOUR_RGB('',1.,0.6,0.2);
#368=FILL_AREA_STYLE_COLOUR('',#367);
#369=FILL_AREA_STYLE($,(#368));
#370=SURFACE_STYLE_FILL_AREA(#369);
#371=SURFACE_SIDE_STYLE('',(#370));
#372=SURFACE_STYLE_USAGE(.BOTH.,#371);
#373=PRESENTATION_STYLE_ASSIGNMENT((#372));
#374=STYLED_ITEM('',(#373),#366);
#375=ADVANCED_FACE('',(#703),#705,.F.);
#376=COLOUR_RGB('',0.564705882352941,0.564705882352941,0.564705882352941);
#377=FILL_AREA_STYLE_COLOUR('',#376);
#378=FILL_AREA_STYLE($,(#377));
#379=SURFACE_STYLE_FILL_AREA(#378);
#380=SURFACE_SIDE_STYLE('',(#379));
#381=SURFACE_STYLE_USAGE(.BOTH.,#380);
#382=PRESENTATION_STYLE_ASSIGNMENT((#381));
#383=STYLED_ITEM('',(#382),#375);
#384=ADVANCED_FACE('',(#710),#712,.F.);
#385=COLOUR_RGB('',0.564705882352941,0.564705882352941,0.564705882352941);
#386=FILL_AREA_STYLE_COLOUR('',#385);
#387=FILL_AREA_STYLE($,(#386));
#388=SURFACE_STYLE_FILL_AREA(#387);
#389=SURFACE_SIDE_STYLE('',(#388));
#390=SURFACE_STYLE_USAGE(.BOTH.,#389);
#391=PRESENTATION_STYLE_ASSIGNMENT((#390));
#392=STYLED_ITEM('',(#391),#384);
#393=ADVANCED_FACE('',(#717),#719,.F.);
#394=COLOUR_RGB('',0.564705882352941,0.564705882352941,0.564705882352941);
#395=FILL_AREA_STYLE_COLOUR('',#394);
#396=FILL_AREA_STYLE($,(#395));
#397=SURFACE_STYLE_FILL_AREA(#396);
#398=SURFACE_SIDE_STYLE('',(#397));
#399=SURFACE_STYLE_USAGE(.BOTH.,#398);
#400=PRESENTATION_STYLE_ASSIGNMENT((#399));
#401=STYLED_ITEM('',(#400),#393);
#402=ADVANCED_FACE('',(#724),#726,.T.);
#403=COLOUR_RGB('',0.564705882352941,0.564705882352941,0.564705882352941);
#404=FILL_AREA_STYLE_COLOUR('',#403);
#405=FILL_AREA_STYLE($,(#404));
#406=SURFACE_STYLE_FILL_AREA(#405);
#407=SURFACE_SIDE_STYLE('',(#406));
#408=SURFACE_STYLE_USAGE(.BOTH.,#407);
#409=PRESENTATION_STYLE_ASSIGNMENT((#408));
#410=STYLED_ITEM('',(#409),#402);
#411=ADVANCED_FACE('',(#731),#733,.T.);
#412=COLOUR_RGB('',0.564705882352941,0.564705882352941,0.564705882352941);
#413=FILL_AREA_STYLE_COLOUR('',#412);
#414=FILL_AREA_STYLE($,(#413));
#415=SURFACE_STYLE_FILL_AREA(#414);
#416=SURFACE_SIDE_STYLE('',(#415));
#417=SURFACE_STYLE_USAGE(.BOTH.,#416);
#418=PRESENTATION_STYLE_ASSIGNMENT((#417));
#419=STYLED_ITEM('',(#418),#411);
#420=ADVANCED_FACE('',(#738),#740,.T.);
#421=COLOUR_RGB('',0.564705882352941,0.564705882352941,0.564705882352941);
#422=FILL_AREA_STYLE_COLOUR('',#421);
#423=FILL_AREA_STYLE($,(#422));
#424=SURFACE_STYLE_FILL_AREA(#423);
#425=SURFACE_SIDE_STYLE('',(#424));
#426=SURFACE_STYLE_USAGE(.BOTH.,#425);
#427=PRESENTATION_STYLE_ASSIGNMENT((#426));
#428=STYLED_ITEM('',(#427),#420);
#429=ADVANCED_FACE('',(#745),#747,.T.);
#430=COLOUR_RGB('',0.564705882352941,0.564705882352941,0.564705882352941);
#431=FILL_AREA_STYLE_COLOUR('',#430);
#432=FILL_AREA_STYLE($,(#431));
#433=SURFACE_STYLE_FILL_AREA(#432);
#434=SURFACE_SIDE_STYLE('',(#433));
#435=SURFACE_STYLE_USAGE(.BOTH.,#434);
#436=PRESENTATION_STYLE_ASSIGNMENT((#435));
#437=STYLED_ITEM('',(#436),#429);
#438=ADVANCED_FACE('',(#752),#754,.T.);
#439=COLOUR_RGB('',0.564705882352941,0.564705882352941,0.564705882352941);
#440=FILL_AREA_STYLE_COLOUR('',#439);
#441=FILL_AREA_STYLE($,(#440));
#442=SURFACE_STYLE_FILL_AREA(#441);
#443=SURFACE_SIDE_STYLE('',(#442));
#444=SURFACE_STYLE_USAGE(.BOTH.,#443);
#445=PRESENTATION_STYLE_ASSIGNMENT((#444));
#446=STYLED_ITEM('',(#445),#438);
#447=ADVANCED_FACE('',(#759),#761,.T.);
#448=COLOUR_RGB('',0.564705882352941,0.564705882352941,0.564705882352941);
#449=FILL_AREA_STYLE_COLOUR('',#448);
#450=FILL_AREA_STYLE($,(#449));
#451=SURFACE_STYLE_FILL_AREA(#450);
#452=SURFACE_SIDE_STYLE('',(#451));
#453=SURFACE_STYLE_USAGE(.BOTH.,#452);
#454=PRESENTATION_STYLE_ASSIGNMENT((#453));
#455=STYLED_ITEM('',(#454),#447);
#456=FACE_BOUND('',#457,.T.);
#457=EDGE_LOOP('',(#766,#767,#768,#769));
#458=FACE_BOUND('',#459,.T.);
#459=EDGE_LOOP('',(#770));
#460=FACE_BOUND('',#461,.T.);
#461=EDGE_LOOP('',(#771));
#462=PLANE('',#463);
#463=AXIS2_PLACEMENT_3D('',#464,#465,#466);
#464=CARTESIAN_POINT('',(0.,0.,9.4));
#465=DIRECTION('',(0.,0.,1.));
#466=DIRECTION('',(-1.,1.22464679914735E-16,0.));
#467=FACE_OUTER_BOUND('',#468,.T.);
#468=EDGE_LOOP('',(#772));
#469=FACE_OUTER_BOUND('',#470,.T.);
#470=EDGE_LOOP('',(#773));
#471=CYLINDRICAL_SURFACE('',#472,1.);
#472=AXIS2_PLACEMENT_3D('',#473,#474,#475);
#473=CARTESIAN_POINT('',(-1.70836060196703,-3.4,7.9));
#474=DIRECTION('',(0.,0.,1.));
#475=DIRECTION('',(-1.,1.22464679914735E-16,0.));
#476=FACE_OUTER_BOUND('',#477,.T.);
#477=EDGE_LOOP('',(#774));
#478=FACE_OUTER_BOUND('',#479,.T.);
#479=EDGE_LOOP('',(#775));
#480=CYLINDRICAL_SURFACE('',#481,1.);
#481=AXIS2_PLACEMENT_3D('',#482,#483,#484);
#482=CARTESIAN_POINT('',(-5.20784050388852,-3.4603358603783,7.9));
#483=DIRECTION('',(0.,0.,1.));
#484=DIRECTION('',(-1.,1.22464679914735E-16,0.));
#485=FACE_BOUND('',#486,.T.);
#486=EDGE_LOOP('',(#776,#777,#778,#779));
#487=PLANE('',#488);
#488=AXIS2_PLACEMENT_3D('',#489,#490,#491);
#489=CARTESIAN_POINT('',(9.46410161513776,-1.15901817497837E-15,5.66794919243112));
#490=DIRECTION('',(1.18291797137867E-16,0.965925826289068,0.258819045102521));
#491=DIRECTION('',(-1.,1.22464679914735E-16,0.));
#492=FACE_BOUND('',#493,.T.);
#493=EDGE_LOOP('',(#780,#781,#782,#783,#784,#785));
#494=PLANE('',#495);
#495=AXIS2_PLACEMENT_3D('',#496,#497,#498);
#496=CARTESIAN_POINT('',(-7.,8.57252759403147E-16,5.));
#497=DIRECTION('',(-1.,1.30614473485313E-16,0.));
#498=DIRECTION('',(-1.30614473485313E-16,-1.,0.));
#499=FACE_BOUND('',#500,.T.);
#500=EDGE_LOOP('',(#786,#787,#788,#789));
#501=PLANE('',#502);
#502=AXIS2_PLACEMENT_3D('',#503,#504,#505);
#503=CARTESIAN_POINT('',(-16.4641016151378,-6.8,5.66794919243112));
#504=DIRECTION('',(-9.92642412960421E-17,-0.965925826289068,0.258819045102521));
#505=DIRECTION('',(1.,-1.02765904580271E-16,-3.9372613750884E-33));
#506=FACE_BOUND('',#507,.T.);
#507=EDGE_LOOP('',(#790,#791,#792,#793,#794,#795));
#508=PLANE('',#509);
#509=AXIS2_PLACEMENT_3D('',#510,#511,#512);
#510=CARTESIAN_POINT('',(-8.327598234202E-16,-6.8,5.));
#511=DIRECTION('',(1.,-1.22464679914735E-16,0.));
#512=DIRECTION('',(1.22464679914735E-16,1.,0.));
#513=FACE_BOUND('',#514,.T.);
#514=EDGE_LOOP('',(#796));
#515=PLANE('',#516);
#516=AXIS2_PLACEMENT_3D('',#517,#518,#519);
#517=CARTESIAN_POINT('',(0.,0.,7.9));
#518=DIRECTION('',(0.,0.,1.));
#519=DIRECTION('',(-1.,1.22464679914735E-16,0.));
#520=FACE_BOUND('',#521,.T.);
#521=EDGE_LOOP('',(#797));
#522=PLANE('',#523);
#523=AXIS2_PLACEMENT_3D('',#524,#525,#526);
#524=CARTESIAN_POINT('',(0.,0.,7.9));
#525=DIRECTION('',(0.,0.,1.));
#526=DIRECTION('',(-1.,1.22464679914735E-16,0.));
#527=FACE_BOUND('',#528,.T.);
#528=EDGE_LOOP('',(#798,#799,#800,#801));
#529=PLANE('',#530);
#530=AXIS2_PLACEMENT_3D('',#531,#532,#533);
#531=CARTESIAN_POINT('',(0.,0.,5.));
#532=DIRECTION('',(1.22464679914735E-16,1.,0.));
#533=DIRECTION('',(-1.,1.22464679914735E-16,0.));
#534=FACE_BOUND('',#535,.T.);
#535=EDGE_LOOP('',(#802,#803,#804,#805));
#536=PLANE('',#537);
#537=AXIS2_PLACEMENT_3D('',#538,#539,#540);
#538=CARTESIAN_POINT('',(0.,0.,5.));
#539=DIRECTION('',(0.,0.,1.));
#540=DIRECTION('',(-1.,1.22464679914735E-16,0.));
#541=FACE_BOUND('',#542,.T.);
#542=EDGE_LOOP('',(#806,#807,#808,#809));
#543=PLANE('',#544);
#544=AXIS2_PLACEMENT_3D('',#545,#546,#547);
#545=CARTESIAN_POINT('',(-7.,-6.8,5.));
#546=DIRECTION('',(-1.26882631385732E-16,-1.,0.));
#547=DIRECTION('',(1.,-1.26882631385732E-16,0.));
#548=FACE_OUTER_BOUND('',#549,.T.);
#549=EDGE_LOOP('',(#810));
#550=FACE_OUTER_BOUND('',#551,.T.);
#551=EDGE_LOOP('',(#811));
#552=CYLINDRICAL_SURFACE('',#553,0.4);
#553=AXIS2_PLACEMENT_3D('',#554,#555,#556);
#554=CARTESIAN_POINT('',(-5.25,-3.4,0.));
#555=DIRECTION('',(0.,0.,-1.));
#556=DIRECTION('',(-1.,0.,0.));
#557=FACE_BOUND('',#558,.T.);
#558=EDGE_LOOP('',(#812));
#559=PLANE('',#560);
#560=AXIS2_PLACEMENT_3D('',#561,#562,#563);
#561=CARTESIAN_POINT('',(0.,0.,-3.5));
#562=DIRECTION('',(0.,0.,-1.));
#563=DIRECTION('',(-1.,0.,0.));
#564=FACE_BOUND('',#565,.T.);
#565=EDGE_LOOP('',(#813));
#566=PLANE('',#567);
#567=AXIS2_PLACEMENT_3D('',#568,#569,#570);
#568=CARTESIAN_POINT('',(0.,0.,0.));
#569=DIRECTION('',(0.,0.,-1.));
#570=DIRECTION('',(-1.,0.,0.));
#571=FACE_OUTER_BOUND('',#572,.T.);
#572=EDGE_LOOP('',(#814));
#573=FACE_OUTER_BOUND('',#574,.T.);
#574=EDGE_LOOP('',(#815));
#575=CYLINDRICAL_SURFACE('',#576,0.4);
#576=AXIS2_PLACEMENT_3D('',#577,#578,#579);
#577=CARTESIAN_POINT('',(-1.75,-3.4,0.));
#578=DIRECTION('',(0.,0.,-1.));
#579=DIRECTION('',(-1.,0.,0.));
#580=FACE_BOUND('',#581,.T.);
#581=EDGE_LOOP('',(#816));
#582=PLANE('',#583);
#583=AXIS2_PLACEMENT_3D('',#584,#585,#586);
#584=CARTESIAN_POINT('',(0.,0.,0.));
#585=DIRECTION('',(0.,0.,-1.));
#586=DIRECTION('',(-1.,0.,0.));
#587=FACE_BOUND('',#588,.T.);
#588=EDGE_LOOP('',(#817));
#589=PLANE('',#590);
#590=AXIS2_PLACEMENT_3D('',#591,#592,#593);
#591=CARTESIAN_POINT('',(0.,0.,-3.5));
#592=DIRECTION('',(0.,0.,-1.));
#593=DIRECTION('',(-1.,0.,0.));
#594=FACE_BOUND('',#595,.T.);
#595=EDGE_LOOP('',(#818,#819,#820,#821));
#596=FACE_BOUND('',#597,.T.);
#597=EDGE_LOOP('',(#822,#823,#824,#825));
#598=FACE_BOUND('',#599,.T.);
#599=EDGE_LOOP('',(#826,#827,#828,#829));
#600=PLANE('',#601);
#601=AXIS2_PLACEMENT_3D('',#602,#603,#604);
#602=CARTESIAN_POINT('',(0.,0.,0.));
#603=DIRECTION('',(1.22464679914735E-16,1.,0.));
#604=DIRECTION('',(-1.,1.22464679914735E-16,0.));
#605=FACE_BOUND('',#606,.T.);
#606=EDGE_LOOP('',(#830,#831,#832,#833));
#607=PLANE('',#608);
#608=AXIS2_PLACEMENT_3D('',#609,#610,#611);
#609=CARTESIAN_POINT('',(-4.,-2.,4.51413489083003));
#610=DIRECTION('',(1.,-2.22044604925031E-16,1.11022302462516E-16));
#611=DIRECTION('',(1.11022302462516E-16,0.,-1.));
#612=FACE_BOUND('',#613,.T.);
#613=EDGE_LOOP('',(#834,#835,#836,#837));
#614=PLANE('',#615);
#615=AXIS2_PLACEMENT_3D('',#616,#617,#618);
#616=CARTESIAN_POINT('',(-6.24836240374808,-2.,4.51413489083003));
#617=DIRECTION('',(0.,0.,1.));
#618=DIRECTION('',(1.,-9.87583694491943E-17,0.));
#619=FACE_BOUND('',#620,.T.);
#620=EDGE_LOOP('',(#838,#839,#840,#841));
#621=PLANE('',#622);
#622=AXIS2_PLACEMENT_3D('',#623,#624,#625);
#623=CARTESIAN_POINT('',(-6.24836240374808,-2.,0.514134890830025));
#624=DIRECTION('',(-1.,0.,-2.22044604925031E-16));
#625=DIRECTION('',(-2.22044604925031E-16,0.,1.));
#626=FACE_BOUND('',#627,.T.);
#627=EDGE_LOOP('',(#842,#843,#844,#845));
#628=PLANE('',#629);
#629=AXIS2_PLACEMENT_3D('',#630,#631,#632);
#630=CARTESIAN_POINT('',(-4.,-2.,0.514134890830026));
#631=DIRECTION('',(1.48137554173792E-16,-3.289314469108E-32,-1.));
#632=DIRECTION('',(-1.,9.87583694491943E-17,-1.48137554173792E-16));
#633=FACE_BOUND('',#634,.T.);
#634=EDGE_LOOP('',(#846,#847,#848,#849));
#635=PLANE('',#636);
#636=AXIS2_PLACEMENT_3D('',#637,#638,#639);
#637=CARTESIAN_POINT('',(-3.,-2.,0.514134890830025));
#638=DIRECTION('',(-1.,2.22044604925031E-16,-1.11022302462516E-16));
#639=DIRECTION('',(-1.11022302462516E-16,0.,1.));
#640=FACE_BOUND('',#641,.T.);
#641=EDGE_LOOP('',(#850,#851,#852,#853));
#642=PLANE('',#643);
#643=AXIS2_PLACEMENT_3D('',#644,#645,#646);
#644=CARTESIAN_POINT('',(-0.751637596251923,-2.,0.514134890830025));
#645=DIRECTION('',(9.87583694491944E-17,-1.09643815636933E-32,-1.));
#646=DIRECTION('',(-1.,1.97516738898389E-16,-9.87583694491944E-17));
#647=FACE_BOUND('',#648,.T.);
#648=EDGE_LOOP('',(#854,#855,#856,#857));
#649=PLANE('',#650);
#650=AXIS2_PLACEMENT_3D('',#651,#652,#653);
#651=CARTESIAN_POINT('',(-0.751637596251923,-2.,4.51413489083003));
#652=DIRECTION('',(1.,-1.11022302462516E-16,1.11022302462516E-16));
#653=DIRECTION('',(1.11022302462516E-16,0.,-1.));
#654=FACE_BOUND('',#655,.T.);
#655=EDGE_LOOP('',(#858,#859,#860,#861));
#656=PLANE('',#657);
#657=AXIS2_PLACEMENT_3D('',#658,#659,#660);
#658=CARTESIAN_POINT('',(-3.,-2.,4.51413489083003));
#659=DIRECTION('',(0.,0.,1.));
#660=DIRECTION('',(1.,-1.97516738898389E-16,0.));
#661=FACE_BOUND('',#662,.T.);
#662=EDGE_LOOP('',(#862,#863,#864,#865,#866,#867,#868,#869,#870,#871,#872,#873));
#663=PLANE('',#664);
#664=AXIS2_PLACEMENT_3D('',#665,#666,#667);
#665=CARTESIAN_POINT('',(0.,0.,0.));
#666=DIRECTION('',(0.,0.,1.));
#667=DIRECTION('',(-1.,1.22464679914735E-16,0.));
#668=FACE_BOUND('',#669,.T.);
#669=EDGE_LOOP('',(#874,#875,#876,#877));
#670=PLANE('',#671);
#671=AXIS2_PLACEMENT_3D('',#672,#673,#674);
#672=CARTESIAN_POINT('',(-7.,8.57252759403147E-16,0.));
#673=DIRECTION('',(-1.,1.30614473485313E-16,0.));
#674=DIRECTION('',(-1.30614473485313E-16,-1.,0.));
#675=FACE_BOUND('',#676,.T.);
#676=EDGE_LOOP('',(#878,#879,#880,#881,#882,#883,#884,#885,#886,#887,#888,#889));
#677=PLANE('',#678);
#678=AXIS2_PLACEMENT_3D('',#679,#680,#681);
#679=CARTESIAN_POINT('',(0.,0.,5.));
#680=DIRECTION('',(0.,0.,1.));
#681=DIRECTION('',(-1.,1.22464679914735E-16,0.));
#682=FACE_BOUND('',#683,.T.);
#683=EDGE_LOOP('',(#890,#891,#892,#893));
#684=PLANE('',#685);
#685=AXIS2_PLACEMENT_3D('',#686,#687,#688);
#686=CARTESIAN_POINT('',(-8.327598234202E-16,-6.8,0.));
#687=DIRECTION('',(1.,-1.22464679914735E-16,0.));
#688=DIRECTION('',(1.22464679914735E-16,1.,0.));
#689=FACE_BOUND('',#690,.T.);
#690=EDGE_LOOP('',(#894,#895,#896,#897));
#691=PLANE('',#692);
#692=AXIS2_PLACEMENT_3D('',#693,#694,#695);
#693=CARTESIAN_POINT('',(-2.44929359829471E-16,-2.,0.));
#694=DIRECTION('',(1.22464679914735E-16,1.,0.));
#695=DIRECTION('',(-1.,1.22464679914735E-16,-1.22464679914735E-16));
#696=FACE_BOUND('',#697,.T.);
#697=EDGE_LOOP('',(#898,#899,#900,#901));
#698=PLANE('',#699);
#699=AXIS2_PLACEMENT_3D('',#700,#701,#702);
#700=CARTESIAN_POINT('',(-2.44929359829471E-16,-2.,0.));
#701=DIRECTION('',(1.22464679914735E-16,1.,0.));
#702=DIRECTION('',(-1.,1.22464679914735E-16,-1.22464679914735E-16));
#703=FACE_BOUND('',#704,.T.);
#704=EDGE_LOOP('',(#902,#903,#904,#905));
#705=PLANE('',#706);
#706=AXIS2_PLACEMENT_3D('',#707,#708,#709);
#707=CARTESIAN_POINT('',(-6.5,-1.55249082529018,10.));
#708=DIRECTION('',(0.,-1.,0.));
#709=DIRECTION('',(-1.,0.,0.));
#710=FACE_BOUND('',#711,.T.);
#711=EDGE_LOOP('',(#906,#907,#908,#909));
#712=PLANE('',#713);
#713=AXIS2_PLACEMENT_3D('',#714,#715,#716);
#714=CARTESIAN_POINT('',(-6.5,-0.552490825290176,10.));
#715=DIRECTION('',(1.,0.,0.));
#716=DIRECTION('',(0.,-1.,0.));
#717=FACE_BOUND('',#718,.T.);
#718=EDGE_LOOP('',(#910,#911,#912,#913));
#719=PLANE('',#720);
#720=AXIS2_PLACEMENT_3D('',#721,#722,#723);
#721=CARTESIAN_POINT('',(-7.,-0.552490825290177,10.));
#722=DIRECTION('',(-2.22044604925031E-16,1.,0.));
#723=DIRECTION('',(1.,2.22044604925031E-16,0.));
#724=FACE_BOUND('',#725,.T.);
#725=EDGE_LOOP('',(#914,#915,#916,#917));
#726=PLANE('',#727);
#727=AXIS2_PLACEMENT_3D('',#728,#729,#730);
#728=CARTESIAN_POINT('',(-5.61965902076133E-17,-0.552490825290175,5.));
#729=DIRECTION('',(0.,1.,0.));
#730=DIRECTION('',(1.,0.,0.));
#731=FACE_BOUND('',#732,.T.);
#732=EDGE_LOOP('',(#918,#919,#920,#921));
#733=PLANE('',#734);
#734=AXIS2_PLACEMENT_3D('',#735,#736,#737);
#735=CARTESIAN_POINT('',(0.5,-0.552490825290175,5.));
#736=DIRECTION('',(1.,0.,0.));
#737=DIRECTION('',(0.,-1.,0.));
#738=FACE_BOUND('',#739,.T.);
#739=EDGE_LOOP('',(#922,#923,#924,#925));
#740=PLANE('',#741);
#741=AXIS2_PLACEMENT_3D('',#742,#743,#744);
#742=CARTESIAN_POINT('',(0.5,-1.55249082529017,5.));
#743=DIRECTION('',(0.,-1.,0.));
#744=DIRECTION('',(-1.,0.,0.));
#745=FACE_BOUND('',#746,.T.);
#746=EDGE_LOOP('',(#926,#927,#928,#929));
#747=PLANE('',#748);
#748=AXIS2_PLACEMENT_3D('',#749,#750,#751);
#749=CARTESIAN_POINT('',(-8.327598234202E-16,-6.8,0.));
#750=DIRECTION('',(1.,-1.22464679914735E-16,0.));
#751=DIRECTION('',(1.22464679914735E-16,1.,0.));
#752=FACE_BOUND('',#753,.T.);
#753=EDGE_LOOP('',(#930,#931,#932,#933));
#754=PLANE('',#755);
#755=AXIS2_PLACEMENT_3D('',#756,#757,#758);
#756=CARTESIAN_POINT('',(-7.,-6.8,0.));
#757=DIRECTION('',(-1.26882631385732E-16,-1.,0.));
#758=DIRECTION('',(1.,-1.26882631385732E-16,0.));
#759=FACE_BOUND('',#760,.T.);
#760=EDGE_LOOP('',(#934,#935,#936,#937));
#761=PLANE('',#762);
#762=AXIS2_PLACEMENT_3D('',#763,#764,#765);
#763=CARTESIAN_POINT('',(-7.,8.57252759403147E-16,0.));
#764=DIRECTION('',(-1.,1.30614473485313E-16,0.));
#765=DIRECTION('',(-1.30614473485313E-16,-1.,0.));
#766=ORIENTED_EDGE('',*,*,#938,.T.);
#767=ORIENTED_EDGE('',*,*,#939,.T.);
#768=ORIENTED_EDGE('',*,*,#940,.T.);
#769=ORIENTED_EDGE('',*,*,#941,.T.);
#770=ORIENTED_EDGE('',*,*,#942,.T.);
#771=ORIENTED_EDGE('',*,*,#943,.T.);
#772=ORIENTED_EDGE('',*,*,#943,.F.);
#773=ORIENTED_EDGE('',*,*,#944,.F.);
#774=ORIENTED_EDGE('',*,*,#942,.F.);
#775=ORIENTED_EDGE('',*,*,#945,.F.);
#776=ORIENTED_EDGE('',*,*,#946,.T.);
#777=ORIENTED_EDGE('',*,*,#947,.T.);
#778=ORIENTED_EDGE('',*,*,#938,.F.);
#779=ORIENTED_EDGE('',*,*,#948,.T.);
#780=ORIENTED_EDGE('',*,*,#947,.F.);
#781=ORIENTED_EDGE('',*,*,#949,.F.);
#782=ORIENTED_EDGE('',*,*,#950,.T.);
#783=ORIENTED_EDGE('',*,*,#951,.T.);
#784=ORIENTED_EDGE('',*,*,#952,.F.);
#785=ORIENTED_EDGE('',*,*,#939,.F.);
#786=ORIENTED_EDGE('',*,*,#953,.T.);
#787=ORIENTED_EDGE('',*,*,#954,.T.);
#788=ORIENTED_EDGE('',*,*,#940,.F.);
#789=ORIENTED_EDGE('',*,*,#952,.T.);
#790=ORIENTED_EDGE('',*,*,#948,.F.);
#791=ORIENTED_EDGE('',*,*,#941,.F.);
#792=ORIENTED_EDGE('',*,*,#954,.F.);
#793=ORIENTED_EDGE('',*,*,#955,.F.);
#794=ORIENTED_EDGE('',*,*,#956,.T.);
#795=ORIENTED_EDGE('',*,*,#957,.T.);
#796=ORIENTED_EDGE('',*,*,#944,.T.);
#797=ORIENTED_EDGE('',*,*,#945,.T.);
#798=ORIENTED_EDGE('',*,*,#946,.F.);
#799=ORIENTED_EDGE('',*,*,#957,.F.);
#800=ORIENTED_EDGE('',*,*,#958,.T.);
#801=ORIENTED_EDGE('',*,*,#949,.T.);
#802=ORIENTED_EDGE('',*,*,#958,.F.);
#803=ORIENTED_EDGE('',*,*,#956,.F.);
#804=ORIENTED_EDGE('',*,*,#959,.F.);
#805=ORIENTED_EDGE('',*,*,#950,.F.);
#806=ORIENTED_EDGE('',*,*,#953,.F.);
#807=ORIENTED_EDGE('',*,*,#951,.F.);
#808=ORIENTED_EDGE('',*,*,#959,.T.);
#809=ORIENTED_EDGE('',*,*,#955,.T.);
#810=ORIENTED_EDGE('',*,*,#960,.T.);
#811=ORIENTED_EDGE('',*,*,#961,.F.);
#812=ORIENTED_EDGE('',*,*,#961,.T.);
#813=ORIENTED_EDGE('',*,*,#960,.F.);
#814=ORIENTED_EDGE('',*,*,#962,.T.);
#815=ORIENTED_EDGE('',*,*,#963,.F.);
#816=ORIENTED_EDGE('',*,*,#962,.F.);
#817=ORIENTED_EDGE('',*,*,#963,.T.);
#818=ORIENTED_EDGE('',*,*,#964,.T.);
#819=ORIENTED_EDGE('',*,*,#965,.T.);
#820=ORIENTED_EDGE('',*,*,#966,.F.);
#821=ORIENTED_EDGE('',*,*,#967,.F.);
#822=ORIENTED_EDGE('',*,*,#968,.T.);
#823=ORIENTED_EDGE('',*,*,#969,.T.);
#824=ORIENTED_EDGE('',*,*,#970,.T.);
#825=ORIENTED_EDGE('',*,*,#971,.T.);
#826=ORIENTED_EDGE('',*,*,#972,.T.);
#827=ORIENTED_EDGE('',*,*,#973,.T.);
#828=ORIENTED_EDGE('',*,*,#974,.T.);
#829=ORIENTED_EDGE('',*,*,#975,.T.);
#830=ORIENTED_EDGE('',*,*,#973,.F.);
#831=ORIENTED_EDGE('',*,*,#976,.F.);
#832=ORIENTED_EDGE('',*,*,#977,.F.);
#833=ORIENTED_EDGE('',*,*,#978,.T.);
#834=ORIENTED_EDGE('',*,*,#974,.F.);
#835=ORIENTED_EDGE('',*,*,#978,.F.);
#836=ORIENTED_EDGE('',*,*,#979,.F.);
#837=ORIENTED_EDGE('',*,*,#980,.T.);
#838=ORIENTED_EDGE('',*,*,#975,.F.);
#839=ORIENTED_EDGE('',*,*,#980,.F.);
#840=ORIENTED_EDGE('',*,*,#981,.F.);
#841=ORIENTED_EDGE('',*,*,#982,.T.);
#842=ORIENTED_EDGE('',*,*,#972,.F.);
#843=ORIENTED_EDGE('',*,*,#982,.F.);
#844=ORIENTED_EDGE('',*,*,#983,.F.);
#845=ORIENTED_EDGE('',*,*,#976,.T.);
#846=ORIENTED_EDGE('',*,*,#969,.F.);
#847=ORIENTED_EDGE('',*,*,#984,.F.);
#848=ORIENTED_EDGE('',*,*,#985,.F.);
#849=ORIENTED_EDGE('',*,*,#986,.T.);
#850=ORIENTED_EDGE('',*,*,#970,.F.);
#851=ORIENTED_EDGE('',*,*,#986,.F.);
#852=ORIENTED_EDGE('',*,*,#987,.F.);
#853=ORIENTED_EDGE('',*,*,#988,.T.);
#854=ORIENTED_EDGE('',*,*,#971,.F.);
#855=ORIENTED_EDGE('',*,*,#988,.F.);
#856=ORIENTED_EDGE('',*,*,#989,.F.);
#857=ORIENTED_EDGE('',*,*,#990,.T.);
#858=ORIENTED_EDGE('',*,*,#968,.F.);
#859=ORIENTED_EDGE('',*,*,#990,.F.);
#860=ORIENTED_EDGE('',*,*,#991,.F.);
#861=ORIENTED_EDGE('',*,*,#984,.T.);
#862=ORIENTED_EDGE('',*,*,#992,.T.);
#863=ORIENTED_EDGE('',*,*,#993,.T.);
#864=ORIENTED_EDGE('',*,*,#994,.T.);
#865=ORIENTED_EDGE('',*,*,#995,.F.);
#866=ORIENTED_EDGE('',*,*,#964,.F.);
#867=ORIENTED_EDGE('',*,*,#996,.F.);
#868=ORIENTED_EDGE('',*,*,#997,.T.);
#869=ORIENTED_EDGE('',*,*,#998,.T.);
#870=ORIENTED_EDGE('',*,*,#999,.T.);
#871=ORIENTED_EDGE('',*,*,#1000,.F.);
#872=ORIENTED_EDGE('',*,*,#1001,.F.);
#873=ORIENTED_EDGE('',*,*,#1002,.F.);
#874=ORIENTED_EDGE('',*,*,#1003,.T.);
#875=ORIENTED_EDGE('',*,*,#1004,.F.);
#876=ORIENTED_EDGE('',*,*,#965,.F.);
#877=ORIENTED_EDGE('',*,*,#995,.T.);
#878=ORIENTED_EDGE('',*,*,#1005,.T.);
#879=ORIENTED_EDGE('',*,*,#1006,.T.);
#880=ORIENTED_EDGE('',*,*,#1007,.T.);
#881=ORIENTED_EDGE('',*,*,#1008,.T.);
#882=ORIENTED_EDGE('',*,*,#1009,.F.);
#883=ORIENTED_EDGE('',*,*,#1010,.F.);
#884=ORIENTED_EDGE('',*,*,#1011,.F.);
#885=ORIENTED_EDGE('',*,*,#1012,.T.);
#886=ORIENTED_EDGE('',*,*,#966,.T.);
#887=ORIENTED_EDGE('',*,*,#1004,.T.);
#888=ORIENTED_EDGE('',*,*,#1013,.T.);
#889=ORIENTED_EDGE('',*,*,#1014,.T.);
#890=ORIENTED_EDGE('',*,*,#1015,.F.);
#891=ORIENTED_EDGE('',*,*,#996,.T.);
#892=ORIENTED_EDGE('',*,*,#967,.T.);
#893=ORIENTED_EDGE('',*,*,#1012,.F.);
#894=ORIENTED_EDGE('',*,*,#983,.T.);
#895=ORIENTED_EDGE('',*,*,#981,.T.);
#896=ORIENTED_EDGE('',*,*,#979,.T.);
#897=ORIENTED_EDGE('',*,*,#977,.T.);
#898=ORIENTED_EDGE('',*,*,#991,.T.);
#899=ORIENTED_EDGE('',*,*,#989,.T.);
#900=ORIENTED_EDGE('',*,*,#987,.T.);
#901=ORIENTED_EDGE('',*,*,#985,.T.);
#902=ORIENTED_EDGE('',*,*,#1005,.F.);
#903=ORIENTED_EDGE('',*,*,#1016,.T.);
#904=ORIENTED_EDGE('',*,*,#992,.F.);
#905=ORIENTED_EDGE('',*,*,#1017,.F.);
#906=ORIENTED_EDGE('',*,*,#1014,.F.);
#907=ORIENTED_EDGE('',*,*,#1018,.T.);
#908=ORIENTED_EDGE('',*,*,#993,.F.);
#909=ORIENTED_EDGE('',*,*,#1016,.F.);
#910=ORIENTED_EDGE('',*,*,#1013,.F.);
#911=ORIENTED_EDGE('',*,*,#1003,.F.);
#912=ORIENTED_EDGE('',*,*,#994,.F.);
#913=ORIENTED_EDGE('',*,*,#1018,.F.);
#914=ORIENTED_EDGE('',*,*,#1015,.T.);
#915=ORIENTED_EDGE('',*,*,#1011,.T.);
#916=ORIENTED_EDGE('',*,*,#1019,.T.);
#917=ORIENTED_EDGE('',*,*,#997,.F.);
#918=ORIENTED_EDGE('',*,*,#1010,.T.);
#919=ORIENTED_EDGE('',*,*,#1020,.T.);
#920=ORIENTED_EDGE('',*,*,#998,.F.);
#921=ORIENTED_EDGE('',*,*,#1019,.F.);
#922=ORIENTED_EDGE('',*,*,#1021,.T.);
#923=ORIENTED_EDGE('',*,*,#999,.F.);
#924=ORIENTED_EDGE('',*,*,#1020,.F.);
#925=ORIENTED_EDGE('',*,*,#1009,.T.);
#926=ORIENTED_EDGE('',*,*,#1021,.F.);
#927=ORIENTED_EDGE('',*,*,#1008,.F.);
#928=ORIENTED_EDGE('',*,*,#1022,.F.);
#929=ORIENTED_EDGE('',*,*,#1000,.T.);
#930=ORIENTED_EDGE('',*,*,#1001,.T.);
#931=ORIENTED_EDGE('',*,*,#1022,.T.);
#932=ORIENTED_EDGE('',*,*,#1007,.F.);
#933=ORIENTED_EDGE('',*,*,#1023,.F.);
#934=ORIENTED_EDGE('',*,*,#1017,.T.);
#935=ORIENTED_EDGE('',*,*,#1002,.T.);
#936=ORIENTED_EDGE('',*,*,#1023,.T.);
#937=ORIENTED_EDGE('',*,*,#1006,.F.);
#938=EDGE_CURVE('',#1024,#1025,#1026,.T.);
#939=EDGE_CURVE('',#1025,#1027,#1028,.T.);
#940=EDGE_CURVE('',#1027,#1029,#1030,.T.);
#941=EDGE_CURVE('',#1029,#1024,#1031,.T.);
#942=EDGE_CURVE('',#1032,#1032,#1033,.F.);
#943=EDGE_CURVE('',#1034,#1034,#1035,.F.);
#944=EDGE_CURVE('',#1036,#1036,#1037,.T.);
#945=EDGE_CURVE('',#1038,#1038,#1039,.T.);
#946=EDGE_CURVE('',#1040,#1041,#1042,.T.);
#947=EDGE_CURVE('',#1041,#1025,#1043,.F.);
#948=EDGE_CURVE('',#1024,#1040,#1044,.F.);
#949=EDGE_CURVE('',#1045,#1041,#1046,.T.);
#950=EDGE_CURVE('',#1045,#1047,#1048,.T.);
#951=EDGE_CURVE('',#1047,#1049,#1050,.T.);
#952=EDGE_CURVE('',#1027,#1049,#1051,.F.);
#953=EDGE_CURVE('',#1049,#1052,#1053,.T.);
#954=EDGE_CURVE('',#1052,#1029,#1054,.F.);
#955=EDGE_CURVE('',#1055,#1052,#1056,.T.);
#956=EDGE_CURVE('',#1055,#1057,#1058,.T.);
#957=EDGE_CURVE('',#1057,#1040,#1059,.T.);
#958=EDGE_CURVE('',#1057,#1045,#1060,.T.);
#959=EDGE_CURVE('',#1047,#1055,#1061,.T.);
#960=EDGE_CURVE('',#1062,#1062,#1063,.T.);
#961=EDGE_CURVE('',#1064,#1064,#1065,.T.);
#962=EDGE_CURVE('',#1066,#1066,#1067,.T.);
#963=EDGE_CURVE('',#1068,#1068,#1069,.T.);
#964=EDGE_CURVE('',#1070,#1071,#1072,.T.);
#965=EDGE_CURVE('',#1071,#1073,#1074,.T.);
#966=EDGE_CURVE('',#1075,#1073,#1076,.T.);
#967=EDGE_CURVE('',#1070,#1075,#1077,.T.);
#968=EDGE_CURVE('',#1078,#1079,#1080,.F.);
#969=EDGE_CURVE('',#1079,#1081,#1082,.F.);
#970=EDGE_CURVE('',#1081,#1083,#1084,.F.);
#971=EDGE_CURVE('',#1083,#1078,#1085,.F.);
#972=EDGE_CURVE('',#1086,#1087,#1088,.F.);
#973=EDGE_CURVE('',#1087,#1089,#1090,.F.);
#974=EDGE_CURVE('',#1089,#1091,#1092,.F.);
#975=EDGE_CURVE('',#1091,#1086,#1093,.F.);
#976=EDGE_CURVE('',#1094,#1087,#1095,.T.);
#977=EDGE_CURVE('',#1096,#1094,#1097,.T.);
#978=EDGE_CURVE('',#1096,#1089,#1098,.T.);
#979=EDGE_CURVE('',#1099,#1096,#1100,.T.);
#980=EDGE_CURVE('',#1099,#1091,#1101,.T.);
#981=EDGE_CURVE('',#1102,#1099,#1103,.T.);
#982=EDGE_CURVE('',#1102,#1086,#1104,.T.);
#983=EDGE_CURVE('',#1094,#1102,#1105,.T.);
#984=EDGE_CURVE('',#1106,#1079,#1107,.T.);
#985=EDGE_CURVE('',#1108,#1106,#1109,.T.);
#986=EDGE_CURVE('',#1108,#1081,#1110,.T.);
#987=EDGE_CURVE('',#1111,#1108,#1112,.T.);
#988=EDGE_CURVE('',#1111,#1083,#1113,.T.);
#989=EDGE_CURVE('',#1114,#1111,#1115,.T.);
#990=EDGE_CURVE('',#1114,#1078,#1116,.T.);
#991=EDGE_CURVE('',#1106,#1114,#1117,.T.);
#992=EDGE_CURVE('',#1118,#1119,#1120,.T.);
#993=EDGE_CURVE('',#1119,#1121,#1122,.T.);
#994=EDGE_CURVE('',#1121,#1123,#1124,.T.);
#995=EDGE_CURVE('',#1071,#1123,#1125,.T.);
#996=EDGE_CURVE('',#1126,#1070,#1127,.T.);
#997=EDGE_CURVE('',#1126,#1128,#1129,.T.);
#998=EDGE_CURVE('',#1128,#1130,#1131,.T.);
#999=EDGE_CURVE('',#1130,#1132,#1133,.T.);
#1000=EDGE_CURVE('',#1134,#1132,#1135,.T.);
#1001=EDGE_CURVE('',#1136,#1134,#1137,.T.);
#1002=EDGE_CURVE('',#1118,#1136,#1138,.T.);
#1003=EDGE_CURVE('',#1123,#1139,#1140,.F.);
#1004=EDGE_CURVE('',#1073,#1139,#1141,.T.);
#1005=EDGE_CURVE('',#1142,#1143,#1144,.F.);
#1006=EDGE_CURVE('',#1143,#1145,#1146,.T.);
#1007=EDGE_CURVE('',#1145,#1147,#1148,.T.);
#1008=EDGE_CURVE('',#1147,#1149,#1150,.T.);
#1009=EDGE_CURVE('',#1151,#1149,#1152,.T.);
#1010=EDGE_CURVE('',#1153,#1151,#1154,.T.);
#1011=EDGE_CURVE('',#1155,#1153,#1156,.T.);
#1012=EDGE_CURVE('',#1155,#1075,#1157,.T.);
#1013=EDGE_CURVE('',#1139,#1158,#1159,.F.);
#1014=EDGE_CURVE('',#1158,#1142,#1160,.F.);
#1015=EDGE_CURVE('',#1126,#1155,#1161,.T.);
#1016=EDGE_CURVE('',#1142,#1119,#1162,.T.);
#1017=EDGE_CURVE('',#1143,#1118,#1163,.F.);
#1018=EDGE_CURVE('',#1158,#1121,#1164,.T.);
#1019=EDGE_CURVE('',#1153,#1128,#1165,.T.);
#1020=EDGE_CURVE('',#1151,#1130,#1166,.T.);
#1021=EDGE_CURVE('',#1149,#1132,#1167,.T.);
#1022=EDGE_CURVE('',#1134,#1147,#1168,.T.);
#1023=EDGE_CURVE('',#1136,#1145,#1169,.T.);
#1024=VERTEX_POINT('',#1170);
#1025=VERTEX_POINT('',#1171);
#1026=LINE('',#1172,#1173);
#1027=VERTEX_POINT('',#1175);
#1028=LINE('',#1176,#1177);
#1029=VERTEX_POINT('',#1179);
#1030=LINE('',#1180,#1181);
#1031=LINE('',#1183,#1184);
#1032=VERTEX_POINT('',#1186);
#1033=CIRCLE('',#1187,1.);
#1034=VERTEX_POINT('',#1191);
#1035=CIRCLE('',#1192,1.);
#1036=VERTEX_POINT('',#1196);
#1037=CIRCLE('',#1197,1.);
#1038=VERTEX_POINT('',#1201);
#1039=CIRCLE('',#1202,1.);
#1040=VERTEX_POINT('',#1206);
#1041=VERTEX_POINT('',#1207);
#1042=LINE('',#1208,#1209);
#1043=LINE('',#1211,#1212);
#1044=LINE('',#1214,#1215);
#1045=VERTEX_POINT('',#1217);
#1046=LINE('',#1218,#1219);
#1047=VERTEX_POINT('',#1221);
#1048=LINE('',#1222,#1223);
#1049=VERTEX_POINT('',#1225);
#1050=LINE('',#1226,#1227);
#1051=LINE('',#1229,#1230);
#1052=VERTEX_POINT('',#1232);
#1053=LINE('',#1233,#1234);
#1054=LINE('',#1236,#1237);
#1055=VERTEX_POINT('',#1239);
#1056=LINE('',#1240,#1241);
#1057=VERTEX_POINT('',#1243);
#1058=LINE('',#1244,#1245);
#1059=LINE('',#1247,#1248);
#1060=LINE('',#1250,#1251);
#1061=LINE('',#1253,#1254);
#1062=VERTEX_POINT('',#1256);
#1063=CIRCLE('',#1257,0.4);
#1064=VERTEX_POINT('',#1261);
#1065=CIRCLE('',#1262,0.4);
#1066=VERTEX_POINT('',#1266);
#1067=CIRCLE('',#1267,0.4);
#1068=VERTEX_POINT('',#1271);
#1069=CIRCLE('',#1272,0.4);
#1070=VERTEX_POINT('',#1276);
#1071=VERTEX_POINT('',#1277);
#1072=LINE('',#1278,#1279);
#1073=VERTEX_POINT('',#1281);
#1074=LINE('',#1282,#1283);
#1075=VERTEX_POINT('',#1285);
#1076=LINE('',#1286,#1287);
#1077=LINE('',#1289,#1290);
#1078=VERTEX_POINT('',#1292);
#1079=VERTEX_POINT('',#1293);
#1080=LINE('',#1294,#1295);
#1081=VERTEX_POINT('',#1297);
#1082=LINE('',#1298,#1299);
#1083=VERTEX_POINT('',#1301);
#1084=LINE('',#1302,#1303);
#1085=LINE('',#1305,#1306);
#1086=VERTEX_POINT('',#1308);
#1087=VERTEX_POINT('',#1309);
#1088=LINE('',#1310,#1311);
#1089=VERTEX_POINT('',#1313);
#1090=LINE('',#1314,#1315);
#1091=VERTEX_POINT('',#1317);
#1092=LINE('',#1318,#1319);
#1093=LINE('',#1321,#1322);
#1094=VERTEX_POINT('',#1324);
#1095=LINE('',#1325,#1326);
#1096=VERTEX_POINT('',#1328);
#1097=LINE('',#1329,#1330);
#1098=LINE('',#1332,#1333);
#1099=VERTEX_POINT('',#1335);
#1100=LINE('',#1336,#1337);
#1101=LINE('',#1339,#1340);
#1102=VERTEX_POINT('',#1342);
#1103=LINE('',#1343,#1344);
#1104=LINE('',#1346,#1347);
#1105=LINE('',#1349,#1350);
#1106=VERTEX_POINT('',#1352);
#1107=LINE('',#1353,#1354);
#1108=VERTEX_POINT('',#1356);
#1109=LINE('',#1357,#1358);
#1110=LINE('',#1360,#1361);
#1111=VERTEX_POINT('',#1363);
#1112=LINE('',#1364,#1365);
#1113=LINE('',#1367,#1368);
#1114=VERTEX_POINT('',#1370);
#1115=LINE('',#1371,#1372);
#1116=LINE('',#1374,#1375);
#1117=LINE('',#1377,#1378);
#1118=VERTEX_POINT('',#1380);
#1119=VERTEX_POINT('',#1381);
#1120=LINE('',#1382,#1383);
#1121=VERTEX_POINT('',#1385);
#1122=LINE('',#1386,#1387);
#1123=VERTEX_POINT('',#1389);
#1124=LINE('',#1390,#1391);
#1125=LINE('',#1393,#1394);
#1126=VERTEX_POINT('',#1396);
#1127=LINE('',#1397,#1398);
#1128=VERTEX_POINT('',#1400);
#1129=LINE('',#1401,#1402);
#1130=VERTEX_POINT('',#1404);
#1131=LINE('',#1405,#1406);
#1132=VERTEX_POINT('',#1408);
#1133=LINE('',#1409,#1410);
#1134=VERTEX_POINT('',#1412);
#1135=LINE('',#1413,#1414);
#1136=VERTEX_POINT('',#1416);
#1137=LINE('',#1417,#1418);
#1138=LINE('',#1420,#1421);
#1139=VERTEX_POINT('',#1423);
#1140=LINE('',#1424,#1425);
#1141=LINE('',#1427,#1428);
#1142=VERTEX_POINT('',#1430);
#1143=VERTEX_POINT('',#1431);
#1144=LINE('',#1432,#1433);
#1145=VERTEX_POINT('',#1435);
#1146=LINE('',#1436,#1437);
#1147=VERTEX_POINT('',#1439);
#1148=LINE('',#1440,#1441);
#1149=VERTEX_POINT('',#1443);
#1150=LINE('',#1444,#1445);
#1151=VERTEX_POINT('',#1447);
#1152=LINE('',#1448,#1449);
#1153=VERTEX_POINT('',#1451);
#1154=LINE('',#1452,#1453);
#1155=VERTEX_POINT('',#1455);
#1156=LINE('',#1456,#1457);
#1157=LINE('',#1459,#1460);
#1158=VERTEX_POINT('',#1462);
#1159=LINE('',#1463,#1464);
#1160=LINE('',#1466,#1467);
#1161=LINE('',#1469,#1470);
#1162=LINE('',#1472,#1473);
#1163=LINE('',#1475,#1476);
#1164=LINE('',#1478,#1479);
#1165=LINE('',#1481,#1482);
#1166=LINE('',#1484,#1485);
#1167=LINE('',#1487,#1488);
#1168=LINE('',#1490,#1491);
#1169=LINE('',#1493,#1494);
#1170=CARTESIAN_POINT('',(2.55650567019522E-17,-1.,9.4));
#1171=CARTESIAN_POINT('',(-7.,-0.999999999999999,9.4));
#1172=CARTESIAN_POINT('',(3.21624529935327E-16,-1.,9.4));
#1173=VECTOR('',#1174,1.);
#1174=DIRECTION('',(-1.,1.11022302462516E-16,0.));
#1175=CARTESIAN_POINT('',(-7.,-5.8,9.4));
#1176=CARTESIAN_POINT('',(-7.,-0.999999999999999,9.4));
#1177=VECTOR('',#1178,1.);
#1178=DIRECTION('',(-1.85037170770859E-16,-1.,0.));
#1179=CARTESIAN_POINT('',(-5.8730453076024E-16,-5.8,9.4));
#1180=CARTESIAN_POINT('',(-7.,-5.8,9.4));
#1181=VECTOR('',#1182,1.);
#1182=DIRECTION('',(1.,-1.26882631385732E-16,0.));
#1183=CARTESIAN_POINT('',(-7.10295143505465E-16,-5.8,9.4));
#1184=VECTOR('',#1185,1.);
#1185=DIRECTION('',(1.22464679914735E-16,1.,0.));
#1186=CARTESIAN_POINT('',(-6.20784050388852,-3.4603358603783,9.4));
#1187=AXIS2_PLACEMENT_3D('',#1188,#1189,#1190);
#1188=CARTESIAN_POINT('',(-5.20784050388852,-3.4603358603783,9.4));
#1189=DIRECTION('',(0.,0.,1.));
#1190=DIRECTION('',(-1.,1.22464679914735E-16,0.));
#1191=CARTESIAN_POINT('',(-2.70836060196703,-3.4,9.4));
#1192=AXIS2_PLACEMENT_3D('',#1193,#1194,#1195);
#1193=CARTESIAN_POINT('',(-1.70836060196703,-3.4,9.4));
#1194=DIRECTION('',(0.,0.,1.));
#1195=DIRECTION('',(-1.,1.22464679914735E-16,0.));
#1196=CARTESIAN_POINT('',(-2.70836060196703,-3.4,7.9));
#1197=AXIS2_PLACEMENT_3D('',#1198,#1199,#1200);
#1198=CARTESIAN_POINT('',(-1.70836060196703,-3.4,7.9));
#1199=DIRECTION('',(0.,0.,1.));
#1200=DIRECTION('',(-1.,1.22464679914735E-16,0.));
#1201=CARTESIAN_POINT('',(-6.20784050388852,-3.4603358603783,7.9));
#1202=AXIS2_PLACEMENT_3D('',#1203,#1204,#1205);
#1203=CARTESIAN_POINT('',(-5.20784050388852,-3.4603358603783,7.9));
#1204=DIRECTION('',(0.,0.,1.));
#1205=DIRECTION('',(-1.,1.22464679914735E-16,0.));
#1206=CARTESIAN_POINT('',(1.48029736616688E-16,-8.38668230810429E-32,5.66794919243112));
#1207=CARTESIAN_POINT('',(-7.,8.57252759403147E-16,5.66794919243112));
#1208=CARTESIAN_POINT('',(4.44089209850063E-16,-1.52992856090502E-31,5.66794919243112));
#1209=VECTOR('',#1210,1.);
#1210=DIRECTION('',(-1.,1.22464679914735E-16,0.));
#1211=CARTESIAN_POINT('',(-7.,-0.999999999999999,9.4));
#1212=VECTOR('',#1213,1.);
#1213=DIRECTION('',(0.,0.258819045102521,-0.965925826289068));
#1214=CARTESIAN_POINT('',(0.,-9.86076131526265E-32,5.66794919243112));
#1215=VECTOR('',#1216,1.);
#1216=DIRECTION('',(-3.16961915143176E-17,-0.258819045102521,0.965925826289068));
#1217=CARTESIAN_POINT('',(-7.,8.57252759403147E-16,5.));
#1218=CARTESIAN_POINT('',(-7.,8.57252759403147E-16,5.));
#1219=VECTOR('',#1220,1.);
#1220=DIRECTION('',(0.,0.,1.));
#1221=CARTESIAN_POINT('',(-7.,-6.8,5.));
#1222=CARTESIAN_POINT('',(-7.,8.57252759403147E-16,5.));
#1223=VECTOR('',#1224,1.);
#1224=DIRECTION('',(-1.30614473485313E-16,-1.,0.));
#1225=CARTESIAN_POINT('',(-7.,-6.8,5.66794919243112));
#1226=CARTESIAN_POINT('',(-7.,-6.8,5.));
#1227=VECTOR('',#1228,1.);
#1228=DIRECTION('',(0.,0.,1.));
#1229=CARTESIAN_POINT('',(-7.,-6.8,5.66794919243112));
#1230=VECTOR('',#1231,1.);
#1231=DIRECTION('',(0.,0.258819045102521,0.965925826289068));
#1232=CARTESIAN_POINT('',(-8.69705554273484E-16,-6.8,5.66794919243112));
#1233=CARTESIAN_POINT('',(-7.,-6.8,5.66794919243112));
#1234=VECTOR('',#1235,1.);
#1235=DIRECTION('',(1.,-1.26882631385732E-16,0.));
#1236=CARTESIAN_POINT('',(-3.03764619462597E-16,-5.8,9.4));
#1237=VECTOR('',#1238,1.);
#1238=DIRECTION('',(-2.91469824034401E-17,-0.258819045102521,-0.965925826289068));
#1239=CARTESIAN_POINT('',(-8.327598234202E-16,-6.8,5.));
#1240=CARTESIAN_POINT('',(-8.60469121560163E-16,-6.8,5.));
#1241=VECTOR('',#1242,1.);
#1242=DIRECTION('',(0.,0.,1.));
#1243=CARTESIAN_POINT('',(0.,0.,5.));
#1244=CARTESIAN_POINT('',(-8.327598234202E-16,-6.8,5.));
#1245=VECTOR('',#1246,1.);
#1246=DIRECTION('',(1.22464679914735E-16,1.,0.));
#1247=CARTESIAN_POINT('',(0.,0.,5.));
#1248=VECTOR('',#1249,1.);
#1249=DIRECTION('',(0.,0.,1.));
#1250=CARTESIAN_POINT('',(0.,0.,5.));
#1251=VECTOR('',#1252,1.);
#1252=DIRECTION('',(-1.,1.22464679914735E-16,0.));
#1253=CARTESIAN_POINT('',(-7.,-6.8,5.));
#1254=VECTOR('',#1255,1.);
#1255=DIRECTION('',(1.,-1.26882631385732E-16,0.));
#1256=CARTESIAN_POINT('',(-5.65,-3.4,0.));
#1257=AXIS2_PLACEMENT_3D('',#1258,#1259,#1260);
#1258=CARTESIAN_POINT('',(-5.25,-3.4,0.));
#1259=DIRECTION('',(0.,0.,-1.));
#1260=DIRECTION('',(-1.,0.,0.));
#1261=CARTESIAN_POINT('',(-5.65,-3.4,-3.5));
#1262=AXIS2_PLACEMENT_3D('',#1263,#1264,#1265);
#1263=CARTESIAN_POINT('',(-5.25,-3.4,-3.5));
#1264=DIRECTION('',(0.,0.,-1.));
#1265=DIRECTION('',(-1.,0.,0.));
#1266=CARTESIAN_POINT('',(-2.15,-3.4,0.));
#1267=AXIS2_PLACEMENT_3D('',#1268,#1269,#1270);
#1268=CARTESIAN_POINT('',(-1.75,-3.4,0.));
#1269=DIRECTION('',(0.,0.,-1.));
#1270=DIRECTION('',(-1.,0.,0.));
#1271=CARTESIAN_POINT('',(-2.15,-3.4,-3.5));
#1272=AXIS2_PLACEMENT_3D('',#1273,#1274,#1275);
#1273=CARTESIAN_POINT('',(-1.75,-3.4,-3.5));
#1274=DIRECTION('',(0.,0.,-1.));
#1275=DIRECTION('',(-1.,0.,0.));
#1276=CARTESIAN_POINT('',(0.,0.,0.));
#1277=CARTESIAN_POINT('',(-7.,8.57252759403147E-16,0.));
#1278=CARTESIAN_POINT('',(0.,0.,0.));
#1279=VECTOR('',#1280,1.);
#1280=DIRECTION('',(-1.,1.22464679914735E-16,0.));
#1281=CARTESIAN_POINT('',(-7.,8.57252759403147E-16,5.));
#1282=CARTESIAN_POINT('',(-7.,8.57252759403147E-16,0.));
#1283=VECTOR('',#1284,1.);
#1284=DIRECTION('',(0.,0.,1.));
#1285=CARTESIAN_POINT('',(0.,0.,5.));
#1286=CARTESIAN_POINT('',(0.,0.,5.));
#1287=VECTOR('',#1288,1.);
#1288=DIRECTION('',(-1.,1.22464679914735E-16,0.));
#1289=CARTESIAN_POINT('',(0.,0.,0.));
#1290=VECTOR('',#1291,1.);
#1291=DIRECTION('',(0.,0.,1.));
#1292=CARTESIAN_POINT('',(-0.751637596251923,0.,4.51413489083003));
#1293=CARTESIAN_POINT('',(-3.,4.44089209850063E-16,4.51413489083003));
#1294=CARTESIAN_POINT('',(-3.,4.05741624797134E-16,4.51413489083003));
#1295=VECTOR('',#1296,1.);
#1296=DIRECTION('',(1.,-2.58749078855756E-16,0.));
#1297=CARTESIAN_POINT('',(-3.,4.44089209850063E-16,0.514134890830025));
#1298=CARTESIAN_POINT('',(-3.,4.05741624797134E-16,0.514134890830025));
#1299=VECTOR('',#1300,1.);
#1300=DIRECTION('',(-1.11022302462516E-16,0.,1.));
#1301=CARTESIAN_POINT('',(-0.751637596251922,0.,0.514134890830025));
#1302=CARTESIAN_POINT('',(-0.751637596251922,4.60245288184363E-17,0.514134890830025));
#1303=VECTOR('',#1304,1.);
#1304=DIRECTION('',(-1.,1.59990709406562E-16,-9.87583694491944E-17));
#1305=CARTESIAN_POINT('',(-0.751637596251923,4.60245288184364E-17,4.51413489083003));
#1306=VECTOR('',#1307,1.);
#1307=DIRECTION('',(1.11022302462516E-16,-6.16297582203915E-33,-1.));
#1308=CARTESIAN_POINT('',(-6.24836240374808,6.66133814775094E-16,0.514134890830025));
#1309=CARTESIAN_POINT('',(-4.,4.44089209850063E-16,0.514134890830026));
#1310=CARTESIAN_POINT('',(-4.,4.66973964754502E-16,0.514134890830026));
#1311=VECTOR('',#1312,1.);
#1312=DIRECTION('',(-1.,2.09369894131159E-16,-1.97516738898389E-16));
#1313=CARTESIAN_POINT('',(-4.,4.44089209850063E-16,4.51413489083003));
#1314=CARTESIAN_POINT('',(-4.,4.66973964754502E-16,4.51413489083003));
#1315=VECTOR('',#1316,1.);
#1316=DIRECTION('',(1.11022302462516E-16,0.,-1.));
#1317=CARTESIAN_POINT('',(-6.24836240374808,6.66133814775094E-16,4.51413489083003));
#1318=CARTESIAN_POINT('',(-6.24836240374808,7.15668758270684E-16,4.51413489083003));
#1319=VECTOR('',#1320,1.);
#1320=DIRECTION('',(1.,-1.59990709406562E-16,0.));
#1321=CARTESIAN_POINT('',(-6.24836240374808,7.15668758270684E-16,0.514134890830025));
#1322=VECTOR('',#1323,1.);
#1323=DIRECTION('',(-2.22044604925031E-16,0.,1.));
#1324=CARTESIAN_POINT('',(-4.,-2.,0.514134890830026));
#1325=CARTESIAN_POINT('',(-4.,-2.,0.514134890830026));
#1326=VECTOR('',#1327,1.);
#1327=DIRECTION('',(2.22044604925031E-16,1.,0.));
#1328=CARTESIAN_POINT('',(-4.,-2.,4.51413489083003));
#1329=CARTESIAN_POINT('',(-4.,-2.,4.51413489083003));
#1330=VECTOR('',#1331,1.);
#1331=DIRECTION('',(1.11022302462516E-16,0.,-1.));
#1332=CARTESIAN_POINT('',(-4.,-2.,4.51413489083003));
#1333=VECTOR('',#1334,1.);
#1334=DIRECTION('',(2.22044604925031E-16,1.,0.));
#1335=CARTESIAN_POINT('',(-6.24836240374808,-2.,4.51413489083003));
#1336=CARTESIAN_POINT('',(-6.24836240374808,-2.,4.51413489083003));
#1337=VECTOR('',#1338,1.);
#1338=DIRECTION('',(1.,-9.87583694491943E-17,0.));
#1339=CARTESIAN_POINT('',(-6.24836240374808,-2.,4.51413489083003));
#1340=VECTOR('',#1341,1.);
#1341=DIRECTION('',(0.,1.,0.));
#1342=CARTESIAN_POINT('',(-6.24836240374808,-2.,0.514134890830025));
#1343=CARTESIAN_POINT('',(-6.24836240374808,-2.,0.514134890830025));
#1344=VECTOR('',#1345,1.);
#1345=DIRECTION('',(-2.22044604925031E-16,0.,1.));
#1346=CARTESIAN_POINT('',(-6.24836240374808,-2.,0.514134890830025));
#1347=VECTOR('',#1348,1.);
#1348=DIRECTION('',(0.,1.,0.));
#1349=CARTESIAN_POINT('',(-4.,-2.,0.514134890830026));
#1350=VECTOR('',#1351,1.);
#1351=DIRECTION('',(-1.,9.87583694491943E-17,-1.48137554173792E-16));
#1352=CARTESIAN_POINT('',(-3.,-2.,4.51413489083003));
#1353=CARTESIAN_POINT('',(-3.,-2.,4.51413489083003));
#1354=VECTOR('',#1355,1.);
#1355=DIRECTION('',(4.44089209850063E-16,1.,0.));
#1356=CARTESIAN_POINT('',(-3.,-2.,0.514134890830025));
#1357=CARTESIAN_POINT('',(-3.,-2.,0.514134890830025));
#1358=VECTOR('',#1359,1.);
#1359=DIRECTION('',(-1.11022302462516E-16,0.,1.));
#1360=CARTESIAN_POINT('',(-3.,-2.,0.514134890830025));
#1361=VECTOR('',#1362,1.);
#1362=DIRECTION('',(2.22044604925031E-16,1.,0.));
#1363=CARTESIAN_POINT('',(-0.751637596251923,-2.,0.514134890830025));
#1364=CARTESIAN_POINT('',(-0.751637596251923,-2.,0.514134890830025));
#1365=VECTOR('',#1366,1.);
#1366=DIRECTION('',(-1.,1.97516738898389E-16,-9.87583694491944E-17));
#1367=CARTESIAN_POINT('',(-0.751637596251923,-2.,0.514134890830025));
#1368=VECTOR('',#1369,1.);
#1369=DIRECTION('',(1.11022302462516E-16,1.,0.));
#1370=CARTESIAN_POINT('',(-0.751637596251923,-2.,4.51413489083003));
#1371=CARTESIAN_POINT('',(-0.751637596251923,-2.,4.51413489083003));
#1372=VECTOR('',#1373,1.);
#1373=DIRECTION('',(1.11022302462516E-16,0.,-1.));
#1374=CARTESIAN_POINT('',(-0.751637596251923,-2.,4.51413489083003));
#1375=VECTOR('',#1376,1.);
#1376=DIRECTION('',(3.33066907387547E-16,1.,0.));
#1377=CARTESIAN_POINT('',(-3.,-2.,4.51413489083003));
#1378=VECTOR('',#1379,1.);
#1379=DIRECTION('',(1.,-1.97516738898389E-16,0.));
#1380=CARTESIAN_POINT('',(-7.,-1.55249082529018,0.));
#1381=CARTESIAN_POINT('',(-6.5,-1.55249082529018,0.));
#1382=CARTESIAN_POINT('',(-7.,-1.55249082529018,0.));
#1383=VECTOR('',#1384,1.);
#1384=DIRECTION('',(1.,0.,0.));
#1385=CARTESIAN_POINT('',(-6.5,-0.552490825290176,0.));
#1386=CARTESIAN_POINT('',(-6.5,-1.55249082529018,0.));
#1387=VECTOR('',#1388,1.);
#1388=DIRECTION('',(0.,1.,0.));
#1389=CARTESIAN_POINT('',(-7.,-0.552490825290177,0.));
#1390=CARTESIAN_POINT('',(-6.5,-0.552490825290176,0.));
#1391=VECTOR('',#1392,1.);
#1392=DIRECTION('',(-1.,-2.22044604925031E-16,0.));
#1393=CARTESIAN_POINT('',(-7.,8.57252759403147E-16,0.));
#1394=VECTOR('',#1395,1.);
#1395=DIRECTION('',(0.,-1.,0.));
#1396=CARTESIAN_POINT('',(-6.38392714525305E-17,-0.552490825290175,0.));
#1397=CARTESIAN_POINT('',(-6.76606120749892E-17,-0.552490825290175,0.));
#1398=VECTOR('',#1399,1.);
#1399=DIRECTION('',(1.22464679914735E-16,1.,0.));
#1400=CARTESIAN_POINT('',(0.5,-0.552490825290175,0.));
#1401=CARTESIAN_POINT('',(-5.61965902076133E-17,-0.552490825290175,0.));
#1402=VECTOR('',#1403,1.);
#1403=DIRECTION('',(1.,0.,0.));
#1404=CARTESIAN_POINT('',(0.5,-1.55249082529017,0.));
#1405=CARTESIAN_POINT('',(0.5,-0.552490825290175,0.));
#1406=VECTOR('',#1407,1.);
#1407=DIRECTION('',(0.,-1.,0.));
#1408=CARTESIAN_POINT('',(-1.19637895237867E-16,-1.55249082529017,0.));
#1409=CARTESIAN_POINT('',(0.5,-1.55249082529017,0.));
#1410=VECTOR('',#1411,1.);
#1411=DIRECTION('',(-1.,0.,0.));
#1412=CARTESIAN_POINT('',(-8.327598234202E-16,-6.8,0.));
#1413=CARTESIAN_POINT('',(-8.327598234202E-16,-6.8,0.));
#1414=VECTOR('',#1415,1.);
#1415=DIRECTION('',(1.22464679914735E-16,1.,0.));
#1416=CARTESIAN_POINT('',(-7.,-6.8,0.));
#1417=CARTESIAN_POINT('',(-7.,-6.8,0.));
#1418=VECTOR('',#1419,1.);
#1419=DIRECTION('',(1.,-1.26882631385732E-16,0.));
#1420=CARTESIAN_POINT('',(-7.,-1.55249082529018,0.));
#1421=VECTOR('',#1422,1.);
#1422=DIRECTION('',(-1.69257144700322E-16,-1.,0.));
#1423=CARTESIAN_POINT('',(-7.,-0.552490825290177,5.));
#1424=CARTESIAN_POINT('',(-7.,-0.552490825290177,5.));
#1425=VECTOR('',#1426,1.);
#1426=DIRECTION('',(0.,0.,-1.));
#1427=CARTESIAN_POINT('',(-7.,8.57252759403147E-16,5.));
#1428=VECTOR('',#1429,1.);
#1429=DIRECTION('',(0.,-1.,0.));
#1430=CARTESIAN_POINT('',(-6.5,-1.55249082529018,5.));
#1431=CARTESIAN_POINT('',(-7.,-1.55249082529018,5.));
#1432=CARTESIAN_POINT('',(-7.,-1.55249082529018,5.));
#1433=VECTOR('',#1434,1.);
#1434=DIRECTION('',(1.,0.,0.));
#1435=CARTESIAN_POINT('',(-7.,-6.8,5.));
#1436=CARTESIAN_POINT('',(-7.,-1.55249082529018,5.));
#1437=VECTOR('',#1438,1.);
#1438=DIRECTION('',(-1.69257144700322E-16,-1.,0.));
#1439=CARTESIAN_POINT('',(-8.327598234202E-16,-6.8,5.));
#1440=CARTESIAN_POINT('',(-7.,-6.8,5.));
#1441=VECTOR('',#1442,1.);
#1442=DIRECTION('',(1.,-1.26882631385732E-16,0.));
#1443=CARTESIAN_POINT('',(-1.19637895237867E-16,-1.55249082529017,5.));
#1444=CARTESIAN_POINT('',(-8.327598234202E-16,-6.8,5.));
#1445=VECTOR('',#1446,1.);
#1446=DIRECTION('',(1.22464679914735E-16,1.,0.));
#1447=CARTESIAN_POINT('',(0.5,-1.55249082529017,5.));
#1448=CARTESIAN_POINT('',(0.5,-1.55249082529017,5.));
#1449=VECTOR('',#1450,1.);
#1450=DIRECTION('',(-1.,0.,0.));
#1451=CARTESIAN_POINT('',(0.5,-0.552490825290175,5.));
#1452=CARTESIAN_POINT('',(0.5,-0.552490825290175,5.));
#1453=VECTOR('',#1454,1.);
#1454=DIRECTION('',(0.,-1.,0.));
#1455=CARTESIAN_POINT('',(-6.38392714525305E-17,-0.552490825290175,5.));
#1456=CARTESIAN_POINT('',(-5.61965902076133E-17,-0.552490825290175,5.));
#1457=VECTOR('',#1458,1.);
#1458=DIRECTION('',(1.,0.,0.));
#1459=CARTESIAN_POINT('',(-6.76606120749892E-17,-0.552490825290175,5.));
#1460=VECTOR('',#1461,1.);
#1461=DIRECTION('',(1.22464679914735E-16,1.,0.));
#1462=CARTESIAN_POINT('',(-6.5,-0.552490825290176,5.));
#1463=CARTESIAN_POINT('',(-6.5,-0.552490825290176,5.));
#1464=VECTOR('',#1465,1.);
#1465=DIRECTION('',(-1.,-2.22044604925031E-16,0.));
#1466=CARTESIAN_POINT('',(-6.5,-1.55249082529018,5.));
#1467=VECTOR('',#1468,1.);
#1468=DIRECTION('',(0.,1.,0.));
#1469=CARTESIAN_POINT('',(-6.76606120749891E-17,-0.552490825290175,0.));
#1470=VECTOR('',#1471,1.);
#1471=DIRECTION('',(0.,0.,1.));
#1472=CARTESIAN_POINT('',(-6.5,-1.55249082529018,5.));
#1473=VECTOR('',#1474,1.);
#1474=DIRECTION('',(0.,0.,-1.));
#1475=CARTESIAN_POINT('',(-7.,-1.55249082529018,0.));
#1476=VECTOR('',#1477,1.);
#1477=DIRECTION('',(0.,0.,1.));
#1478=CARTESIAN_POINT('',(-6.5,-0.552490825290176,5.));
#1479=VECTOR('',#1480,1.);
#1480=DIRECTION('',(0.,0.,-1.));
#1481=CARTESIAN_POINT('',(0.5,-0.552490825290175,5.));
#1482=VECTOR('',#1483,1.);
#1483=DIRECTION('',(0.,0.,-1.));
#1484=CARTESIAN_POINT('',(0.5,-1.55249082529017,5.));
#1485=VECTOR('',#1486,1.);
#1486=DIRECTION('',(0.,0.,-1.));
#1487=CARTESIAN_POINT('',(-1.78329372841749E-16,-1.55249082529017,5.));
#1488=VECTOR('',#1489,1.);
#1489=DIRECTION('',(0.,0.,-1.));
#1490=CARTESIAN_POINT('',(-8.60469121560163E-16,-6.8,0.));
#1491=VECTOR('',#1492,1.);
#1492=DIRECTION('',(0.,0.,1.));
#1493=CARTESIAN_POINT('',(-7.,-6.8,0.));
#1494=VECTOR('',#1495,1.);
#1495=DIRECTION('',(0.,0.,1.));
ENDSEC;
END-ISO-10303-21;
